<?xml version="1.0" encoding="utf-8" ?><svg xmlns="http://www.w3.org/2000/svg" xmlns:xlink="http://www.w3.org/1999/xlink" width="1024" height="1024" viewBox="0 0 1024 1024"><path fill="#3F0000" d="M569.079 179.084L710.934 179.018C718.38 179.025 764.512 178.445 769.616 180.013C770.571 180.911 772.256 182.637 772.171 184.028C772.038 186.234 768.623 190.478 767.015 192.132C753.651 205.872 739.266 219.161 725.347 232.342L656.86 297.575C632.531 321.713 606.439 344.741 582.058 368.904C572.883 377.996 562.693 388.203 552.898 396.528C556.448 348.312 559.707 300.076 562.674 251.821L565.981 204.807C566.477 197.523 566.889 190.099 567.337 182.806C567.466 180.709 567.879 180.385 569.079 179.084Z"/><path fill="#3F0000" d="M397.108 341.055C401.554 343.903 409.757 351.398 414.071 355.14L444.938 381.893L487.221 418.158C494.017 424.008 503.908 432.006 509.862 438.127C507.429 442.001 491.476 456.78 487.115 461.09L420.652 526.445C418.72 528.396 417.307 529.526 415.196 531.217C411.102 528.232 394.805 510.817 390.661 506.498L340.448 454.016C335.77 449.11 313.394 426.92 310.864 422.633C313.634 419.375 319.728 413.839 323.048 410.698L344.427 390.536L377.573 359.265C383.774 353.415 390.758 346.508 397.108 341.055Z"/><path fill="#3F0000" d="M551.389 193.421C552.692 194.77 550.875 212.092 550.629 215.114C549.347 229.993 548.163 244.879 547.076 259.773L540.228 358.289C539.014 375.752 538.371 393.268 536.481 410.688C535.673 418.139 532.868 426.112 524.042 426.323C521.893 426.36 519.778 425.788 517.942 424.672C513.254 421.788 499.089 409.153 494.382 405.017C483.653 395.592 471.492 385.989 461.081 376.411C456.194 372.985 410.976 334.565 409.539 330.849C413.027 325.383 423.372 315.96 428.438 311.141L454.123 286.737L551.389 193.421Z"/><path fill="#3F0000" d="M535.185 470.807C536.86 472.284 546.806 491.487 548.624 494.818L569.463 532.997C572.407 538.319 580.375 551.699 582.622 558.053C583.257 559.848 582.384 567.834 582.118 570.236C577.598 610.99 574.321 652.271 569.088 692.911C566.303 696.592 559.203 702.997 555.634 706.37L533.523 727.174C527.158 733.117 521.068 739.482 514.56 745.268C512.841 746.796 510.512 748.677 508.241 747.678C506.359 744.349 509.572 720.902 510.102 715.755L515.927 659.951C522.425 597.344 529.58 533.472 535.185 470.807Z"/><path fill="#3F0000" d="M726.505 250.297C728.964 250.601 752.603 275.275 756.067 278.735C764.566 287.117 772.981 295.582 781.313 304.129C785.216 308.134 789.059 312.089 792.861 316.218C796.503 319.61 796.478 324.771 792.226 327.875C783.416 334.305 773.907 340.467 764.888 346.681L714.178 381.502C705.667 387.366 695.97 393.77 687.75 399.89C674.512 407.762 659.207 420.384 645.414 428.764L667.985 342.407C671.884 327.363 675.551 309.39 680.922 295.052C681.588 293.276 696.766 279.135 699.044 276.959L726.505 250.297Z"/><path fill="#3F0000" d="M595.492 580.148C595.661 580.247 596.225 580.564 596.294 580.684C610.354 605.281 625.636 635.675 638.892 660.341C652.768 686.162 662.873 705.787 676.661 731.119C677.31 732.551 679.998 737.575 679.551 738.949C677.016 746.739 671.6 758.23 668.398 765.358C661.088 781.971 653.427 798.428 645.42 814.718C641.95 821.987 637.259 831.679 633.35 838.598C630.418 832.188 626.531 819.453 624.166 812.358L608.259 764.68L591.734 716.646C590.296 712.453 584.001 694.95 584.115 692.186C584.609 680.254 586.514 665.291 587.833 653.197L595.492 580.148Z"/><path fill="#3F0000" d="M310.957 216.478C312.204 218.129 317.692 223.497 319.484 225.426C327.487 234.037 336.185 242.205 344.348 250.651C364.451 271.45 384.463 293.273 405.163 313.422C388.103 330.638 367.561 349.417 349.689 366.099C337.112 377.984 316.391 398.426 302.334 409.854C301.618 410.437 300.444 409.529 299.66 409.082C299.307 406.24 299.175 403.374 299.264 400.512C299.631 390.515 300.637 379.291 301.284 369.164L304.43 315.999C305.579 292.486 306.969 268.986 308.602 245.501C308.906 240.659 309.787 219.481 310.957 216.478Z"/><path fill="#3F0000" d="M659.896 313.912L660.269 314.245C660.452 316.332 650.927 350.654 649.718 355.364C644.718 375.132 639.597 394.87 634.357 414.576C632.777 420.492 628.345 441.544 624.819 443.965C617.613 448.913 565.013 487.137 561.421 486.874C558.232 484.403 554.763 476.287 552.82 472.35C548.879 465.035 536.974 444.339 536 436.781C535.631 433.918 558.233 413.115 561.448 409.991L608.041 364.837C618.615 354.546 629.129 344.195 639.584 333.784C646.028 327.376 653.169 319.855 659.896 313.912Z"/><path fill="#3F0000" d="M520.02 449.811C521.458 450.289 521.353 450.258 522.273 451.477C522.783 455.303 521.108 468.219 520.622 472.695L516.147 513.783L508.899 586.097C507.711 597.815 506.442 614.554 504.463 625.715C492.805 613.899 478.742 599.085 467.665 586.923C455.513 575.013 444.14 562.252 432.015 550.299C430.518 548.823 425.977 544.56 426.104 542.555C429.713 536.706 441.394 526.627 446.868 521.373L478.418 490.691C491.148 478.28 507.093 461.104 520.02 449.811Z"/><path fill="#3F0000" d="M573.483 708.215C575.706 710.113 592.071 761.633 594.13 767.905L619.354 843.015C616.018 840.88 611.178 836.821 607.947 834.289L586.968 817.874C571.563 804.921 554.451 793.004 538.854 780.184C531.676 774.284 523.834 768.969 516.897 762.781C521.903 756.75 532.718 747.09 538.776 741.387L573.483 708.215Z"/><path fill="#3F0000" d="M293.212 215.846L293.75 216.015C295.18 218.579 290.128 290.587 289.576 297.417C287.704 299.924 286.756 300.704 284.155 302.38C273.122 303.213 197.716 308.707 192.269 307.416C188.595 304.394 187.167 300.885 191.373 297.397C203.889 287.017 216.826 276.947 229.517 266.787C250.614 249.639 271.846 232.658 293.212 215.846Z"/></svg>