<svg viewBox="213.57 79.30622009569377 1505.16 351.79425837320576" xmlns:xlink="http://www.w3.org/1999/xlink" xmlns="http://www.w3.org/2000/svg" style="max-height: 500px" width="1505.16" height="351.79425837320576"><path d="M823.06 80.3596C830.944 79.9891 843.359 88.4878 849.695 92.8748C876.056 111.126 899.423 136.283 914.166 164.79C934.434 203.521 938.483 248.717 925.424 290.434C908.968 341.859 874.322 372.501 828.064 396.29C827.223 396.372 825.314 396.363 824.533 396.038C747.341 363.952 701.75 279.325 724.832 197.548C740.19 143.137 776.221 106.773 823.06 80.3596ZM826.442 390.109C915.383 342.48 953.299 258.954 906.401 164.377C893.204 137.763 854.625 97.2953 825.658 86.4526C779.08 113.536 744.679 148.231 730.43 202.286C720.017 241.599 725.646 283.438 746.08 318.603C761.698 345.39 796.789 380.499 826.442 390.109Z" fill="#FEFEFE"/><path d="M825.658 86.4526C854.625 97.2953 893.204 137.763 906.401 164.377C953.299 258.954 915.383 342.48 826.442 390.109C796.789 380.499 761.698 345.39 746.08 318.603C725.646 283.438 720.017 241.599 730.43 202.286C744.679 148.231 779.08 113.536 825.658 86.4526ZM827.892 328.42C833.948 323.124 839.69 318.039 844.814 311.808C879.559 269.557 880.466 199.03 843.595 157.728C840.239 153.969 829.672 142.906 824.684 142.647C799.824 162.358 787.141 183.385 782.19 218.353C777.124 254.127 790.509 309.147 825.765 328.761C826.157 328.979 827.462 328.664 827.892 328.42Z" fill="#BC331C"/><path d="M824.714 134.833C833.765 136.066 850.006 154.232 855.023 161.403C886.248 206.035 884.739 272.448 850.551 315.099C843.297 324.149 836.243 330.145 826.924 336.866C816.344 332.665 803.368 319.262 797.068 310.125C766.192 265.342 766.428 196.303 802.397 154.293C809.537 145.954 816.002 141.056 824.714 134.833ZM827.892 328.42C833.948 323.124 839.69 318.039 844.814 311.808C879.559 269.557 880.466 199.03 843.595 157.728C840.239 153.969 829.672 142.906 824.684 142.647C799.824 162.358 787.141 183.385 782.19 218.353C777.124 254.127 790.509 309.147 825.765 328.761C826.157 328.979 827.462 328.664 827.892 328.42Z" fill="#FEFEFE"/><path d="M653.467 208.662C653.513 187.284 654.725 162.175 651.963 141.181C650.636 131.089 638.836 121.659 639.061 114.207C644.767 104.306 724.837 77.4923 733.457 88.4489C734.139 94.8133 724.557 106.183 721.76 113.446C718.867 120.013 716.371 127.161 715.654 134.353C712.656 164.429 713.082 194.894 713.063 225.091C713.035 268.1 712.002 310.393 717.688 353.167C719.817 369.182 741.435 407.98 736.033 420.142C727.76 428.113 713.936 405.853 707 401.633C706.47 401.311 705.004 399.846 704.446 399.354C680.554 380.235 665.073 372.778 637.289 360.721C640.341 350.997 649.558 336.921 650.748 331.238C655.272 309.612 653.556 275.053 653.413 252.176L597.805 252.008C597.065 276.603 595.226 312.728 601.805 336.36C603.022 340.732 611.226 351.59 614.009 359.242C604.582 366.66 594.223 369.023 584.16 374.382C562.377 386.078 543.664 401.516 526.098 418.778C522.782 422.036 519.503 423.573 515.163 421.703C508.353 413.504 525.854 380.833 528.649 370.584C541.341 324.051 537.745 274.621 538.399 226.934C538.855 193.646 538.67 162.403 534.994 129.356C533.365 114.702 517.497 99.1271 517.119 90.407C518.641 86.3775 518.054 87.5801 521.592 84.5673C547.893 87.5023 591.348 100.827 614.15 114.361C611.45 119.813 601.856 131.845 601.076 134.583C595.594 153.819 597.378 188.273 597.693 208.665L653.467 208.662Z" fill="#FEFEFE"/><path d="M643.959 116.134C673.664 103.632 696.574 97.8809 727.628 89.6433C724.737 95.2179 720.673 100.479 717.664 105.921C711.254 117.516 708.907 135.048 707.624 148.389C705.213 173.449 706.08 200.1 706.107 225.443C706.151 267.125 704.581 311.638 711.202 352.74C714.412 372.667 726.305 397.879 732.304 418.352C723.495 407.962 717.618 402.065 707.518 393.415C688.931 377.584 666.706 365.61 643.913 357.1C655.962 341.385 660.049 328.446 660.183 308.438C660.324 287.379 660.015 266.319 659.824 245.259L590.918 245.172C590.711 283.329 584.003 325.987 606.97 357.674C576.374 368.307 538.569 392.579 518.919 418.813C523.615 397.316 536.806 373.387 539.8 352.594C545.803 310.891 544.384 265.728 544.439 223.31C544.481 190.749 545.7 154.359 539.939 122.449C538.067 112.081 528.449 98.7548 522.411 90.1188C551.247 96.4304 579.477 105.244 606.782 116.459C605.877 117.278 605.009 118.135 604.178 119.028C585.141 139.445 589.914 188.596 590.92 215.499L659.788 215.493C660.177 193.592 660.766 170.881 659.538 149.03C658.703 134.173 655.008 125.89 643.959 116.134Z" fill="#BC331C"/><path d="M1235.96 82.5598C1260.66 86.5768 1313.58 111.046 1323.56 134.697C1318.24 148.069 1273.62 198.698 1260.47 197.093C1251.17 183.4 1281.08 160.791 1238.92 147.719C1223.58 150.977 1217.93 154.079 1206.89 164.876C1219.26 180.378 1228.58 184.162 1243 194.719C1266.09 211.627 1314.23 243.182 1327.15 267.565C1352.06 314.564 1278.38 378.619 1241.66 398.2C1226.34 393.717 1209.8 383.227 1196.08 374.898C1174.8 361.842 1144.97 337.923 1130.58 317.048C1127.98 312.863 1126.6 309.911 1127.68 305.085C1130.85 290.896 1167.99 242.895 1183.22 246.721C1187.02 251.007 1182.53 276.213 1185.53 283.553C1195.02 306.779 1220.25 320.78 1240.31 331.533C1252.48 319.377 1264.47 302.969 1253.73 285.19C1231.93 249.078 1195.03 219.275 1155.67 204.461C1150.12 202.371 1134.28 209.338 1127.89 207.225C1127.52 206.783 1126.24 205.018 1126.21 204.473C1124.25 156.999 1197.41 94.4765 1235.96 82.5598Z" fill="#FEFEFE"/><path d="M1235.23 89.2362C1262.52 90.3575 1298.05 116.903 1317.73 134.312C1303.75 154.003 1281.64 176.646 1263.09 191.904C1273.01 168.686 1270.78 143.384 1237.95 142.774C1222.4 142.485 1208.76 153.675 1198.54 164.687C1222.19 195.086 1264.02 213.353 1292.39 240.259C1307.82 254.904 1331.86 270.845 1324.77 296.425C1313.07 338.607 1276.92 368.958 1241.43 391.249C1225.97 385.916 1206.11 373.283 1192.31 364.727C1169.19 348.805 1149.35 331.922 1132.58 309.299C1145.51 281.735 1157.68 270.562 1180.01 251.225C1169 299.379 1202.72 320.292 1241.59 339.083C1260.88 320.558 1273.98 302.295 1255.9 276.02C1232.66 242.244 1196.21 210.214 1156.44 198.642C1146.27 195.682 1139.13 198.136 1130.67 203.496C1130.99 202.322 1131.31 201.15 1131.65 199.983C1148.18 143.372 1186.84 115.808 1235.23 89.2362Z" fill="#BC331C"/><path d="M1001.11 85.4961C1004.15 86.2858 1005.77 86.4608 1007.82 88.8763C1009.37 95.4865 997.827 123.52 996.385 133.386C990.941 170.634 1000.64 230.445 1012.45 264.766C1017.53 279.882 1024.41 294.33 1032.95 307.798C1056.17 262.935 1064.12 229.195 1068.44 178.34C1069.2 169.344 1070.56 152.673 1069.92 144.055C1068.73 128.198 1061.62 110.631 1057.4 95.4187C1056.07 90.6448 1056.17 91.3763 1058.31 87.9037C1066.01 83.7732 1073.02 89.3543 1079.39 93.9247C1098.96 107.965 1116.52 125.267 1128.45 146.188C1128.62 163.082 1125.54 181.982 1124.1 198.992C1115.31 263.308 1104.23 319.89 1055.99 367.351C1040.78 382.31 1037 394.371 1017.99 377.054C970.163 333.497 949.967 275.572 942.589 212.954C939.885 190.004 936.624 168.911 936.444 145.355C949.305 123.419 977.35 94.4547 1001.11 85.4961Z" fill="#FEFEFE"/><path d="M1061.56 91.6748C1083.18 98.8781 1110.02 128.673 1122.26 148.273C1120.47 162.303 1120 179.528 1118.18 193.979C1107.4 279.955 1095.43 322.135 1032.25 380.989C965.916 321.706 955.677 270.364 945.592 185.053C944.553 172.584 943.624 160.107 942.807 147.622C957.092 121.908 979.069 105.934 1003.24 90.721C986.504 129.502 986.048 153.547 991.174 194.774C996.97 241.39 1005.66 279.342 1032.38 318.572C1058.57 284.243 1066.37 241.05 1072.59 199.49C1078.63 159.063 1079.28 129.688 1061.56 91.6748Z" fill="#BC331C"/><path d="M1315.83 83.6237C1362.89 80.6484 1418.1 97.5054 1454.62 127.365C1463.32 134.481 1506.17 175.717 1496.24 187.979C1487.39 191.435 1469.05 175.539 1460.79 172.086C1443.31 164.774 1425.62 159.814 1407.21 155.536C1407.43 172.802 1407.26 190.07 1406.68 207.327C1414.61 208.108 1475.98 213.121 1461.08 235.027C1453.12 246.737 1421.02 250.382 1406.41 252.292C1406.21 272.672 1407.32 293.849 1407.25 314.628C1422.45 311.601 1433.71 308.182 1448.28 303.225C1463.47 297.966 1477.87 285.687 1493.14 282.146C1493.63 282.031 1496.36 283.573 1496.81 284.187C1501.2 290.108 1491.45 301.79 1488.33 306.841C1455.88 354.311 1401.66 380.708 1345.38 385.886C1337.32 386.627 1319.46 390.068 1314.18 383.398C1311.14 370.015 1346.99 350.928 1347.25 315.115C1349.3 261.631 1348.24 207.697 1347.43 154.327C1346.88 117.918 1316.69 106.607 1311.99 90.3446C1311.96 87.3522 1313.81 85.8387 1315.83 83.6237Z" fill="#FEFEFE"/><path d="M1317.31 90.4177C1337.85 89.5829 1358.4 91.7221 1378.32 96.769C1430.61 110.014 1465.1 137.232 1492.59 183.25C1463.91 164.302 1434.61 152.69 1400.4 148.538C1400.54 170.463 1400.52 192.389 1400.36 214.315C1425.4 214.445 1438.63 216.78 1460 229.859C1438.42 242.88 1424.98 244.877 1400.18 245.32L1400.4 322.116C1409.65 321.302 1420.48 318.639 1429.42 316.23C1455.87 308.146 1468.87 302.244 1492.12 287.439C1485.6 300.543 1475.48 314.313 1465.22 324.679C1423.47 366.841 1373.91 379.797 1316.84 380.474C1365.73 340.501 1352.46 305.295 1354.68 248.182C1355.47 227.879 1354.37 206.172 1354.8 185.979C1355.72 143.586 1351.59 117.772 1317.31 90.4177Z" fill="#BC331C"/></svg>