<?xml version="1.0" encoding="utf-8" ?><svg xmlns="http://www.w3.org/2000/svg" xmlns:xlink="http://www.w3.org/1999/xlink" width="2048" height="1358" viewBox="0 0 2048 1358"><path d="M0 0L2048 0L2048 1358L0 1358L0 0Z"/><path fill="#FBFCFB" d="M231.184 801.636C215.246 865.944 220.974 927.318 261.078 981.656C263.46 984.883 265.499 987.284 266.694 991.166C266.167 1003.49 251.072 997.006 244.71 993.395C193.788 964.495 159.639 913.529 157.503 854.381C155.615 809.47 158.873 764.605 168.382 720.66C174.434 692.806 174.801 686.209 202.316 701.122C228.848 715.502 254.82 730.411 279.134 748.332C291.994 757.629 304.172 767.835 315.573 778.873C346.866 747.851 406.687 708.579 449.145 693.441C463.981 688.151 472.269 782.615 473.059 793.073C474.302 809.502 474.106 827.206 474.166 844.22C475.312 846.756 474.993 848.587 474.92 851.422L476.617 854.506C476.073 859.374 475.389 864.225 474.563 869.053L471.673 872.933C469.442 888.204 466.049 901.132 459.179 915.768C443.074 950.08 412.685 982.358 377.393 997.152C374.881 998.066 369.969 999.251 367.706 997.602C359.101 991.329 374.103 976.937 377.878 970.869C411.425 916.946 414.86 862.738 400.08 801.746C373.854 819.114 351.396 839.249 332.558 864.584C328.267 870.355 323.052 882.508 316.416 884.812C309.749 884.551 305.516 874.696 301.131 868.391C281.232 839.781 259.332 821.351 231.184 801.636Z"/><path fill="#1C211B" d="M474.166 844.22C475.312 846.756 474.993 848.587 474.92 851.422L476.617 854.506C476.073 859.374 475.389 864.225 474.563 869.053L471.673 872.933C473.524 862.815 473.715 854.475 474.166 844.22Z"/><path fill="#B9331A" d="M311.462 784.055L314.053 786.808C317.557 787.687 330.26 774.014 334.318 770.587C359.899 748.983 419.08 709.489 450.296 699.239C452.122 705.408 455.133 714.523 455.942 720.65C457.065 725.203 458.478 730.216 458.836 734.84C462.653 750.533 464.957 772.034 466.165 788.225C469.719 835.87 471.611 886.02 445.171 928.116C439.447 937.231 436.037 941.504 429.383 949.848C427.369 952.043 424.513 955.357 422.37 957.257C408.703 973.228 389.25 985.086 370.069 993.237C409.022 940.047 421.918 891.019 411.69 825.598C409.79 814.03 407.244 802.578 404.064 791.295C364.136 817.282 341.633 838.373 315.664 878.315C289.873 838.963 266.961 816.678 227.029 791.265C210.436 859.197 210.217 911.251 247.356 973.418C249.094 976.328 251.656 980.361 253.804 982.907C256.64 986.631 259.51 990.5 262.472 994.108L246.884 986.528C229.827 979.549 206.402 956.498 195.322 941.744C167.1 904.164 162.265 867.429 163.648 821.614C164.326 799.149 164.797 784.743 167.997 761.893C168.188 759.061 169.116 753.726 169.539 750.722C172.129 733.108 176.018 715.71 181.175 698.67C185.171 700.41 189.122 702.251 193.025 704.19C194.617 704.963 198.322 706.623 199.663 707.436C216.721 715.391 241.498 730.848 257.766 741.367L259.137 742.491C275.454 752.74 295.976 768.727 309.85 782.238L311.462 784.055Z"/><path fill="#B83414" d="M193.025 704.19C194.617 704.963 198.322 706.623 199.663 707.436C200.011 710.026 200.62 710.696 201.97 713.044L202.445 713.86L201.028 714.642C196.753 713.667 189.246 711.277 190.229 705.913L193.025 704.19Z"/><path fill="#B83414" d="M422.37 957.257L420.717 955.957C418.811 950.084 423.287 943.709 428.306 946.069L429.383 949.848C427.369 952.043 424.513 955.357 422.37 957.257Z"/><path fill="#B83414" d="M455.942 720.65C457.065 725.203 458.478 730.216 458.836 734.84C455.763 736.574 456.773 735.826 455.058 739.67C452.464 736.089 454.808 724.761 455.942 720.65Z"/><path fill="#BD301A" d="M246.884 986.528C249.348 983.649 250.024 983.627 253.804 982.907C256.64 986.631 259.51 990.5 262.472 994.108L246.884 986.528Z"/><path fill="#B83414" d="M309.85 782.238L311.462 784.055C311.628 787.613 312.272 790.248 310.299 792.977C306.281 792.675 305.703 786.818 306.191 783.612L309.85 782.238Z"/><path fill="#B83414" d="M257.766 741.367L259.137 742.491C259.65 746.279 260.893 744.947 261.181 748.704C257.256 748.884 252.744 745.361 250.096 742.688L250.771 741.714L257.766 741.367Z"/><path fill="#B83414" d="M262.537 748.25C265.156 749.354 264.23 748.49 265.652 750.617L263.189 750.696L261.034 751.432L260.201 750.762L262.537 748.25Z"/><path fill="#FBFCFB" d="M1628.33 890.297C1642 830.363 1641.06 777.702 1607.71 724.37C1603.32 717.344 1587.6 698.725 1597.56 693.377C1611.83 693.117 1639.92 714.556 1650.68 725.209C1684.73 757.449 1702.1 798.851 1702.24 845.977C1702.37 892.255 1700.81 954.02 1682.54 996.853C1677.23 1009.31 1591.19 951.595 1582.18 945.002C1568.66 935.252 1555.82 924.577 1543.78 913.055C1532.31 924.189 1520.06 934.236 1507.2 943.73C1491.77 955.123 1425.73 998.631 1409.66 998.666C1408.2 998.669 1406.39 998.178 1405.41 997.045C1395.92 986.057 1387.18 922.784 1386.97 905.235L1385.25 898.602C1385.49 890.458 1384.25 885.6 1384.19 878.319C1386.55 867.138 1383.28 847.106 1385.82 835.62C1388.17 791.857 1407.9 750.844 1440.61 721.686C1449.97 713.239 1475.14 694.24 1488.52 693.56C1491.13 693.428 1492.39 695.01 1493.96 696.584C1495.26 701.36 1494.12 703.801 1491.05 707.839C1450.87 760.733 1442.31 824.982 1459.17 888.496C1459.33 889.084 1459.49 889.67 1459.67 890.253C1476.44 878.254 1488.68 869.418 1503.34 854.528C1512.11 845.658 1520.2 836.123 1527.51 826.009C1532.31 819.383 1537.2 807.987 1545.15 807.419C1550.15 809.606 1555.6 818.682 1558.73 823.472C1576.47 850.663 1601.67 872.226 1628.33 890.297Z"/><path fill="#989E99" d="M1384.19 878.319C1386.55 867.138 1383.28 847.106 1385.82 835.62L1386.1 887.858C1386.17 893.139 1387.21 901.055 1386.97 905.235L1385.25 898.602C1385.49 890.458 1384.25 885.6 1384.19 878.319Z"/><path fill="#B9331A" d="M1598.06 698.905C1604.63 701.439 1607.78 702.672 1613.93 706.188C1617.52 708.151 1629.97 715.229 1632.2 718.15C1636.63 721.307 1638.87 723.194 1642.87 726.899C1648.36 731.824 1651.56 734.98 1656.38 740.64L1659.93 744.895C1674.1 762.545 1689.22 788.646 1691.96 811.475C1693.7 820.273 1695.23 827.08 1695.35 836.135C1697.47 844.383 1695.5 889.351 1694.9 899.308C1694.51 903.878 1693.98 913.16 1693.24 917.391C1692.64 922.587 1692.05 927.282 1691.18 932.437C1690.87 934.781 1690.31 941.008 1689.29 942.728C1688.49 957.482 1682.68 978.235 1678.86 992.913C1643.83 981.35 1567.74 930.419 1543.86 903.701C1529.14 918.803 1505.19 939.078 1487.04 949.727C1486.13 950.358 1483.89 952.005 1483.02 952.382C1468.62 961.612 1445.59 976.234 1430.41 983.317C1424.97 986.555 1415.01 990.894 1409.12 992.855C1407.98 988.56 1406.7 984.181 1405.5 979.892C1402.47 967.744 1399.98 955.467 1398.04 943.097C1397.12 937.124 1396.43 932.125 1395.92 926.113C1394.54 921.05 1392.48 896.154 1392.33 890.667C1391.12 846.448 1389.19 815.847 1408.11 775.079L1412.28 767.308C1416.83 759.896 1419.93 755.171 1425.19 748.271C1426.66 745.954 1430.51 741.894 1432.48 739.687C1433.46 737.651 1441.23 730.155 1443.29 728.069L1448.56 723.511C1455.95 717.559 1460.93 713.914 1468.88 708.74C1476.49 704.731 1482.7 701.503 1490.61 698.122C1485.41 704.257 1482.09 708.786 1477.48 715.354L1471.44 725.274L1469.94 728.219C1464.48 739.203 1454.79 759.33 1452.35 771.502L1450.99 774.871C1441.26 813.432 1443.75 840.023 1450 879.094L1452.62 889.275C1453.08 891.915 1454.9 897.681 1455.7 900.451C1495.3 875.052 1518.39 852.88 1543.9 813.611C1562.31 841.992 1577.95 859.883 1604.48 881.193L1615.77 889.681L1632.26 900.845C1651.23 838.339 1646.66 785.457 1617.7 727.909C1615.54 724.256 1613.37 720.614 1611.17 716.985L1607.65 711.484C1605.17 707.793 1600.88 702.564 1598.06 698.905Z"/><path fill="#B83414" d="M1405.5 979.892C1420.26 987.098 1423.59 976.374 1431.69 978.153C1432.18 980.046 1431.23 981.431 1430.41 983.317C1424.97 986.555 1415.01 990.894 1409.12 992.855C1407.98 988.56 1406.7 984.181 1405.5 979.892Z"/><path fill="#B83414" d="M1395.92 926.113C1398.28 921.162 1398.03 916.511 1400.1 912.978L1400.93 913.131L1400.8 912.199L1399.66 914.083L1400.85 914.746C1398.69 924.718 1405.06 939.443 1403.53 947.401L1402.47 947.682C1401 945.351 1400.58 944.255 1398.04 943.097C1397.12 937.124 1396.43 932.125 1395.92 926.113Z"/><path fill="#B83414" d="M1686.89 916.934C1689.69 923.431 1690 925.374 1691.18 932.437C1690.87 934.781 1690.31 941.008 1689.29 942.728C1685.95 945.332 1688.06 946.167 1684.82 948.006C1684.02 946.183 1686.64 921.117 1686.89 916.934Z"/><path fill="#B83414" d="M1632.2 718.15C1636.63 721.307 1638.87 723.194 1642.87 726.899C1642.89 729.583 1643.17 730.536 1641.58 732.68L1639.81 732.885C1634.65 730.313 1629.37 725.588 1629.73 719.505L1632.2 718.15Z"/><path fill="#B83414" d="M1693.24 917.391C1691.98 917.425 1690.36 917.273 1689.07 917.196L1688.05 915.979C1690.18 907.548 1689.93 899.974 1692.26 891.232C1692.37 894.707 1692.85 895.323 1694.42 898.373L1694.9 899.308C1694.51 903.878 1693.98 913.16 1693.24 917.391Z"/><path fill="#B83414" d="M1598.06 698.905C1604.63 701.439 1607.78 702.672 1613.93 706.188L1613.21 708.431C1614.77 710.18 1615.79 710.588 1615.77 712.327L1615.05 712.789L1615.54 711.637C1611.54 713.364 1612.71 712.842 1607.65 711.484C1605.17 707.793 1600.88 702.564 1598.06 698.905Z"/><path fill="#B83414" d="M1604.48 881.193L1615.77 889.681C1613.47 890.924 1612.88 891.203 1610.4 892.005C1606.02 890.754 1599.86 889.249 1600.5 883.739L1604.48 881.193Z"/><path fill="#B83414" d="M1691.96 811.475C1693.7 820.273 1695.23 827.08 1695.35 836.135C1686.68 831.121 1690.34 819.809 1691.96 811.475Z"/><path fill="#BD301A" d="M1450 879.094L1452.62 889.275C1451.88 891.983 1451.3 892.537 1449.67 894.897L1447.69 895.061C1442.8 889.492 1446.52 883.837 1450 879.094Z"/><path fill="#B83414" d="M1656.38 740.64L1659.93 744.895C1659.76 748.031 1659.86 748.379 1658.55 751.143C1653.29 751.597 1651.54 747.991 1650.92 743.265C1652.88 740.863 1652.61 741.583 1656.38 740.64Z"/><path fill="#B83414" d="M1450.99 774.871L1450.72 773.473C1449.67 772.171 1449.53 771.977 1448.17 771.103L1447.17 770.477C1446.03 765.892 1444.92 762.233 1448.24 758.234L1449.9 758.104C1452.87 764.237 1448.29 763.894 1452.35 771.502L1450.99 774.871Z"/><path fill="#B83414" d="M1611.17 716.985C1615.04 717.384 1618.05 717.206 1620.95 719.587C1621.44 722.813 1619.84 725.356 1617.7 727.909C1615.54 724.256 1613.37 720.614 1611.17 716.985Z"/><path fill="#B83414" d="M1443.29 728.069L1448.56 723.511L1452.63 724.339C1453.44 728.954 1449.92 731.767 1445.67 732.461C1443.46 730.708 1444.16 731.368 1443.29 728.069Z"/><path fill="#B83414" d="M1425.19 748.271C1426.66 745.954 1430.51 741.894 1432.48 739.687C1434.5 742.958 1434.12 741.397 1433.41 745.829C1431.5 748.3 1431.45 748.413 1428.55 749.237L1425.19 748.271Z"/><path fill="#B83414" d="M1412.28 767.308L1415.98 768.384L1417.12 770.6C1415.74 773.473 1416.1 772.618 1413.11 774.676C1411.56 774.812 1409.63 775.043 1408.11 775.079L1412.28 767.308Z"/><path fill="#BD301A" d="M1483.02 952.382C1481.27 949.765 1477.36 949.597 1477.63 946.485C1482.69 947.325 1483.31 949.121 1487.04 949.727C1486.13 950.358 1483.89 952.005 1483.02 952.382Z"/><path fill="#BD301A" d="M1640.01 882.828L1642.71 884.953C1643.27 888.605 1642.58 888.443 1640.72 892.2C1639.21 887.925 1639.38 887.17 1640.01 882.828Z"/><path fill="#B83414" d="M1396.42 823.676C1399.14 825.818 1398.55 828.569 1398.69 831.737L1396.61 831.646C1395.11 828.535 1395.91 827.561 1396.42 823.676Z"/><path fill="#FBFCFB" d="M835.577 347.889C836.985 347.962 839.446 347.949 840.675 348.559C876.584 366.383 908.908 398.801 926.836 434.082C946.843 472.931 950.53 518.156 937.078 559.733C920.736 609.147 885.821 641.519 840.356 664.269C833.646 664.678 822.604 658.084 816.698 654.494C790.821 638.768 768.206 617.266 752.933 590.974C731.067 553.675 725.095 509.159 736.356 467.416C751.023 412.119 787.409 375.725 835.577 347.889Z"/><path fill="#B9331A" d="M740.108 478.972C753.405 426.66 781.326 387.6 828.246 359.783C831.441 357.896 834.659 356.046 837.896 354.232C883.609 379.823 917.6 415.871 932.671 466.989C944.457 506.967 938.042 563.104 911.573 596.397L908.803 601.335L906.901 603.39L905.807 604.27C899.036 613.869 891.876 620.725 883.4 628.749L879.456 632.05C867.317 642.526 852.248 650.898 838.092 658.197C805.076 643.431 777.391 618.883 758.781 587.871C741.252 558.029 731.402 515.353 740.2 481.456L740.108 478.972Z"/><path fill="#B83414" d="M740.108 478.972L743.198 476.552C748.452 479.441 744.405 496.765 742.304 501.495C741.629 496.116 741.381 485.268 740.2 481.456L740.108 478.972Z"/><path fill="#B83414" d="M901.817 598.069C900.101 595.931 900.13 596.059 899.37 593.448L900.377 591.642L902.176 592.26C903.791 594.623 904.63 595.685 906.948 597.366L908.803 601.335L906.901 603.39L901.817 598.069Z"/><path fill="#BD301A" d="M901.817 598.069L906.901 603.39L905.807 604.27C902.44 605.865 902.114 606.826 898.714 605.269C898.582 602.129 900.007 600.737 901.817 598.069Z"/><path fill="#BD301A" d="M906.948 597.366C905.621 595.505 904.607 594.053 904.865 591.777C908.316 592.438 909.095 594.016 911.573 596.397L908.803 601.335L906.948 597.366Z"/><path fill="#B83414" d="M879.456 632.05C877.633 630.974 877.742 631.078 876.59 629.303L877.68 626.292C880.483 624.478 879.024 624.777 882.143 625.105L883.4 628.749L879.456 632.05Z"/><path fill="#FBFCFB" d="M836.798 402.381C892.605 432.493 902.111 515.069 873.546 566.995C864.05 584.256 854.017 594.566 838.078 605.674C829.942 600.3 823.791 595.337 817.209 588.044C816.387 587.133 811.403 581.234 810.836 580.818C809.347 578.412 807.14 575.434 805.484 573.049C784.374 532.395 779.325 491.741 797.836 448.534C807.236 426.594 818.764 416.682 836.798 402.381Z"/><path d="M836.993 410.578C843.209 411.88 855.459 424.46 859.2 429.513C896.972 480.537 889.453 558.34 838.52 597.414L837.444 597.488C829.251 591.686 822.039 584.611 816.08 576.532C779.314 527.045 786.226 448.4 836.993 410.578Z"/><path fill="#BD301A" d="M810.836 580.818C807.959 584.516 804.78 581.37 801.174 587.935C800.687 583.627 803.398 579.861 803.524 574.806L805.484 573.049C807.14 575.434 809.347 578.412 810.836 580.818Z"/><path fill="#BD301A" d="M932.009 478.708C933.026 483.291 932.285 489.472 931.824 494.117C930.352 488.065 928.102 483.915 932.009 478.708Z"/><path fill="#BD301A" d="M783.157 406.278L784.192 408.496C782.771 411.992 780.304 414.624 777.9 417.526C776.743 416.339 777.15 416.827 776.599 415.107C780.048 411.742 781.107 410.658 783.157 406.278Z"/><path fill="#BD301A" d="M890.009 472.648C893.054 476.528 892.149 478.294 892.622 484.201C891.435 484.056 891.908 484.041 890.704 482.762C889.365 478.354 889.634 477.08 890.009 472.648Z"/><path fill="#FBFCFB" d="M665.217 476.977C665.151 456.14 667.386 422.862 662.641 403.021C661.207 397.023 652.804 392.208 650.237 385.598C650.36 382.705 650.695 381.107 653.058 379.057C662.355 370.991 728.684 351.465 739.354 352.501C742.684 352.824 743.987 353.865 745.94 356.298C747.679 363.905 738.402 369.321 733.467 380.222C730.616 386.659 728.667 393.46 727.677 400.431C723.744 428.637 725.03 466.991 724.897 496.061C724.703 537.002 724.109 576.236 729.153 616.954C731.308 634.353 753.311 678.656 748.694 688.688C740.137 695.644 725.544 674.656 717.382 667.959C705.397 658.504 691.441 649.399 678.283 641.283C672.804 637.903 655.186 633.226 650.927 629.174C646.189 624.666 662.807 604.781 663.711 597.37C666.571 573.938 665.306 543.566 665.213 519.936L609.545 519.889C609.469 543.818 607.69 578.407 612.299 601.196C613.157 605.441 623.259 619.226 625.593 626.488C623.095 633.872 600.754 638.636 593.08 643.814C579.051 653.28 564.617 661.464 552.141 673.167C545.915 679.007 538.469 689.079 530.529 691.86C529.342 692.159 528.317 690.776 527.162 689.765C521.546 677.813 536.335 651.751 540.279 639.082C549.876 608.26 550.142 573.999 550.071 541.838C549.967 494.971 551.536 447.361 547.38 400.659C546.706 393.095 542.938 384.131 539.691 377.358C536.832 371.029 528.864 365.236 528.697 358.586C529.802 354.968 530.897 354.364 533.655 351.789C550.156 353.741 607.749 370.267 622.958 380.231C630.567 385.215 613.006 396.688 611.604 405.623C608.125 427.79 609.468 454.239 609.592 476.985L665.217 476.977Z"/><path fill="#B9331A" d="M655.972 384.128C677.258 374.908 718.238 361.445 741.253 357.807C733.8 365.907 724.076 380.78 722.589 392.015C714.979 449.491 719.119 509.744 718.609 567.719C718.4 591.399 722.212 622.032 729.602 643.972C736.178 659.759 740.045 670.914 744.864 687.282C735.465 675.038 732.588 671.868 720.381 662.123L716.028 658.604C693.772 643.014 681.339 633.489 655.705 625.248C678.943 597.125 672.047 549.082 671.97 513.135C649.003 513.208 626.036 513.162 603.069 512.994C603.01 530.735 602.988 548.644 602.96 566.368C602.922 590.737 602.743 606.207 619.437 625.532C607.357 629.548 599.877 633.26 588.613 638.993L587.896 639.29C564.722 655.568 547.052 664.201 530.262 688.129C537.806 661.016 552.175 634.134 553.782 605.885C557.729 536.516 558.772 463.091 552.798 393.837C551.834 382.655 540.693 366.359 533.657 357.838C544.392 360.558 555.082 363.452 565.723 366.518C573.566 368.128 577.91 369.512 585.364 372.187C595.022 374.567 609.58 380.709 619.037 384.613C609.6 391.874 605.101 399.845 604.02 411.934C601.978 434.778 603.127 460.097 603.041 483.264C626.015 483.472 648.99 483.518 671.965 483.401C672.071 455.778 678.875 400.673 655.972 384.128Z"/><path fill="#B83414" d="M728.803 644.121C729.529 653.857 725.842 649.897 726.724 655.635C728.863 655.429 729.333 654.801 731.01 653.474L731.911 654.308C729.884 659.787 729.938 658.333 723.767 659.589C724.114 659.518 720.822 661.893 720.381 662.123L716.028 658.604L717.397 656.512L721.118 655.797C723.189 653.338 723.153 650.743 723.647 647.449C726.174 644.455 724.86 645.378 728.803 644.121Z"/><path fill="#BD301A" d="M587.896 639.29C585.535 638.46 584.934 638.458 583.503 636.38C584.166 633.441 583.586 634.51 586.57 632.414L589.264 632.262L589.889 633.774C588.604 635.962 588.34 636.459 588.613 638.993L587.896 639.29Z"/><path fill="#BD301A" d="M548.516 365.583C551.919 366.132 551.887 365.583 554.147 367.456C553.397 369.952 552.687 371.628 551.676 374.037L551.236 374.984L549.869 375.359C549.324 372.114 548.872 368.854 548.516 365.583Z"/><path fill="#FBFCFB" d="M650.051 695.306C666.49 696.31 676.842 696.294 693.355 699.177C743.553 707.94 787.882 733.036 817.201 775.18C830.543 794.357 849.307 832.872 844.032 856.146C833.264 903.651 807.707 938.107 768.436 965.013C734.938 986.853 687.705 999.528 646.894 996.998C643.948 996.816 642.653 994.527 641.318 992.328C641.297 991.559 641.275 990.79 641.253 990.021C652.618 975.015 668.926 960.723 674.516 941.647C678.97 926.448 676.683 904.351 677.215 888.516C677.921 862.316 678.396 836.196 677.282 809.979C676.472 790.934 679.606 769.115 674.012 750.812C669.569 736.532 662.101 726.095 651.421 715.808C646.611 711.175 640.145 705.722 642.372 698.844C644.706 696.026 646.522 696.012 650.051 695.306Z"/><path fill="#B9331A" d="M646.085 701.984C669.478 701.886 702.072 704.774 723.753 714.076L725.243 714.235C769.856 730.291 805.045 759.383 825.591 802.706C839.07 831.128 843.809 855.247 827.852 884.321L826.183 889.041C790.451 961.894 724.199 990.932 645.681 991.053C662.891 979.553 678.256 956.823 682.315 936.666C684.749 924.578 683.926 908.054 683.97 895.459C684.141 874.508 684.184 853.557 684.099 832.605C683.912 779.343 693.29 739.166 646.085 701.984Z"/><path fill="#BD301A" d="M826.183 889.041C823.224 888.663 822.731 889.101 820.746 887.554C820.476 882.879 822.121 875.207 826.889 873.15C827.89 875.518 827.766 881.455 827.852 884.321L826.183 889.041Z"/><path fill="#B83414" d="M723.753 714.076L725.243 714.235C725.369 715.935 725.172 716.059 724.614 717.702C721.26 719.142 713.126 718.495 711.386 714.919L723.753 714.076Z"/><path fill="#FBFCFB" d="M730.017 761.027C740.701 766.139 747.777 770.236 756.862 777.993L758.911 779.436C763.066 783.419 768.433 788.268 771.996 792.633L773.919 795.186C784.611 803.779 797.782 832.733 802.079 846.362C801.309 849.066 800.459 851.746 799.529 854.399C787.515 888.439 762.496 916.329 729.954 931.954L730.017 761.027Z"/><path d="M736.005 771.487C764.892 785.837 784.469 817.179 795.475 846.428C788.671 865.958 781.156 879.057 768.215 894.841C759.219 905.983 747.747 914.242 735.932 922.042C737.123 913.051 736.345 899.495 736.19 890.082C735.994 874.779 735.916 859.475 735.956 844.171C735.943 830.291 736.019 816.411 736.185 802.532C736.336 793.741 737.2 779.642 736.005 771.487Z"/><path fill="#B83414" d="M756.862 777.993C757.046 775.681 757.181 773.364 757.268 771.045C761.617 769.418 765.244 776.192 766.66 779.583C766.454 779.67 759.914 779.403 758.911 779.436L756.862 777.993Z"/><path fill="#BD301A" d="M771.996 792.633L772.493 787.755L774.113 786.635L776.588 787.224C778.58 790.553 778.458 789.26 778.026 792.55C776.632 793.493 775.403 794.386 773.919 795.186L771.996 792.633Z"/><path fill="#BD301A" d="M778.928 903.809C780.265 904.807 780.775 905.512 781.889 906.736C781.141 909.422 780.843 908.78 777.469 910.724L776.324 911.954L775.433 911.565C777.404 908.487 778.382 907.452 778.928 903.809Z"/><path fill="#BD301A" d="M683.253 737.752C686.085 740.401 685.912 744.809 685.567 748.343C680.868 743.002 681.281 743.969 683.253 737.752Z"/><path fill="#B83414" d="M805.872 839.138L808.504 841.362L808.557 845.674L806.858 847.143C805.215 845.366 805.88 842.25 805.872 839.138Z"/><path fill="#FBFCFB" d="M1139.57 457.892C1158.48 407.213 1192.75 380.016 1239.4 353.819C1249.07 347.783 1259.55 353.53 1269 356.117C1281.71 359.599 1341.52 390.444 1334.08 406.151C1329.18 416.504 1285.38 467.387 1272.36 464.693C1262.63 455.372 1293.39 426.976 1251.5 415.759C1236.85 418.854 1229.23 421.436 1218.8 432.943C1233.62 450.764 1249.39 458.958 1268.17 471.791C1284.28 482.801 1299.64 496.018 1314.72 508.448C1330.35 521.34 1347.07 537.762 1343.87 559.981C1338.67 596.083 1309.57 625.335 1282.48 647.367C1276.42 652.278 1257.91 666.966 1251.26 664.641C1210.9 650.537 1171.41 619.458 1143.51 587.138C1141.15 584.408 1138.22 579.535 1138.68 576.01C1145.34 553.596 1167.02 531.795 1184.5 517.032C1187.34 514.63 1191.08 513.671 1194.12 513.786C1197.9 515.72 1196.58 514.585 1199.02 518.289C1199.59 523.413 1196.54 524.688 1195.76 530.545C1192.81 552.659 1205.6 567.968 1221.94 580.968C1231.29 588.276 1241.48 594.438 1252.29 599.323C1280.64 575.003 1270.33 553.893 1248.73 529.563C1229.01 507.4 1205.17 488.474 1177.97 476.358C1172.63 473.98 1168.43 472.118 1162.63 471.345C1152.47 469.989 1142.74 485.163 1136.73 471.081L1139.57 457.892Z"/><path fill="#B9331A" d="M1249.4 356.709C1284.1 366.583 1303.85 378.076 1329.71 402.367C1315.27 421.869 1293.54 445.567 1274.49 460.49C1297.58 416.226 1251.7 394.034 1216.7 425.48L1215.86 426.284L1211.09 433.007C1215.6 439.124 1220.74 446.054 1226.77 450.692C1262.11 477.879 1306.71 501.867 1333.24 538.442C1343.75 552.927 1334.05 577.162 1325.9 590.258C1321.86 597.01 1317.47 604.086 1312.08 609.854C1300.54 624.639 1283.14 639.099 1268.01 650.185L1260.41 655.161L1253.09 659.347C1238.58 653.573 1222.52 644.521 1209.53 635.916L1208.82 635.533C1202.27 631.34 1197.81 628.611 1191.89 623.498C1189.9 622.774 1181.55 615.683 1179.36 613.907C1165.85 602.085 1155.25 591.754 1144.53 577.455C1153.94 556.838 1162.76 545.657 1179.37 530.476C1183.09 527.068 1187.13 522.853 1191.49 520.399L1191.9 521.527C1177.38 556.822 1212.18 584.236 1238.73 599.97L1248.06 604.609C1261.66 611.201 1275.64 580.889 1276.17 569.678C1277.04 551.293 1261.98 535.316 1251.02 522.239L1246.04 517.253L1234.98 506.223L1231.33 502.919C1229.36 501.397 1227.21 499.367 1225.32 497.69C1220.85 494.564 1216.42 491.386 1212.03 488.157C1202.37 481.447 1192.19 476.123 1181.83 470.606L1176.96 468.709C1161.76 464.001 1155.7 462.183 1142.31 472.037C1145.3 461.832 1154.89 432.604 1162.46 425.965C1165.94 420.049 1169.86 415.747 1174.61 410.879C1194.04 390.597 1223.34 367.505 1249.4 356.709Z"/><path fill="#B83414" d="M1179.36 613.907C1182.08 610.257 1181.67 609.493 1185.43 608.402C1190.77 611.612 1188.17 615.904 1196.08 617.791L1196.95 619.516C1195.46 620.857 1192.81 622.332 1191.89 623.498C1189.9 622.774 1181.55 615.683 1179.36 613.907Z"/><path fill="#B83414" d="M1212.03 488.157L1214.02 485.85C1219.56 486.124 1226.75 489.52 1229.08 494.818L1228.57 496.437L1225.32 497.69C1220.85 494.564 1216.42 491.386 1212.03 488.157Z"/><path fill="#BD301A" d="M1260.41 655.161C1257.26 654.267 1256.97 653.294 1256.68 650.456C1259.5 646.253 1260.8 644.665 1265.97 644.242C1268.22 646.303 1267.5 646.194 1268.01 650.185L1260.41 655.161Z"/><path fill="#B83414" d="M1312.08 609.854C1311.28 602.594 1318.88 591.486 1325.9 590.258C1321.86 597.01 1317.47 604.086 1312.08 609.854Z"/><path fill="#B83414" d="M1176.96 468.709C1182.94 464.636 1190.56 464.914 1194.88 471.191C1193.15 472.223 1186.63 470.266 1181.83 470.606L1176.96 468.709Z"/><path fill="#B83414" d="M1208.82 635.533C1207.64 632.581 1207.15 631.501 1204.86 629.297L1205.22 627.701C1209.45 628.265 1213.22 630.554 1216.22 633.509L1216.17 635.032C1213.31 635.841 1212.55 635.795 1209.53 635.916L1208.82 635.533Z"/><path fill="#B83414" d="M1215.86 426.284L1213.84 424.453C1212.7 421.123 1212.78 422.55 1213.97 418.944L1215.45 418.498C1217.44 421.277 1216.76 421.532 1216.7 425.48L1215.86 426.284Z"/><path fill="#B83414" d="M1270.18 483.931C1271.85 484.307 1272.44 485.286 1273.62 486.571C1272.82 488.895 1269.17 490.312 1266.3 492.236C1264.76 492.928 1265.58 492.689 1263.66 492.432L1263.57 491.09C1265.72 488.657 1267.93 486.27 1270.18 483.931Z"/><path fill="#B83414" d="M1164.54 592.524C1169.49 593.964 1172.45 596.269 1172.34 601.293L1169.09 600.502C1166.17 597.75 1165.86 596.199 1164.54 592.524Z"/><path fill="#BD301A" d="M1306.44 416.033L1308.54 415.874L1308.89 416.937C1306.94 418.989 1306.1 419.714 1303.87 421.471L1303.36 422.288L1302.32 422.105C1303.28 418.366 1303.55 418.964 1306.44 416.033Z"/><path fill="#BD301A" d="M1268.21 535.663C1272.58 538.397 1272.35 539.554 1272.11 544.241C1269.12 542.353 1268.6 538.898 1268.21 535.663Z"/><path fill="#BD301A" d="M1288.76 433.476L1290.04 432.689L1291.03 433.4L1290.11 437.405L1288.82 437.642L1287.95 436.583L1288.76 433.476Z"/><path fill="#BD301A" d="M476.617 854.506C485.295 801.884 501.099 754.744 539.451 716.265C544.317 711.384 559.549 693.314 565.698 696.623C582.969 705.92 608.792 736.3 617.639 752.918C648.791 800.171 657.748 879.939 660.542 936.161L655.426 944.814C646.722 957.907 606.926 1000.96 591.052 996.071C588.452 993.945 588.553 993.539 587.719 990.087C589.408 981.936 594.967 970.416 597.655 961.333C604.417 938.483 602.333 906.093 597.635 882.958C575.289 883.154 552.941 883.158 530.595 882.969C526.279 919.235 523.03 941.723 536.024 977.157C540.556 977.325 539.081 976.726 542.4 978.887C543.699 982.75 543.397 983.511 541.011 987.129C541.436 990.812 540.922 992.612 538.646 995.445C523.108 1002.34 470.828 951.589 469.263 934.892C467.607 917.234 472.085 887.148 474.563 869.053C475.389 864.225 476.073 859.374 476.617 854.506Z"/><path fill="#FBFCFB" d="M476.617 854.506C485.295 801.884 501.099 754.744 539.451 716.265C544.317 711.384 559.549 693.314 565.698 696.623C582.969 705.92 608.792 736.3 617.639 752.918C615.01 754.899 614.322 755.074 613.45 758.038C595.833 732.56 587.957 722.659 564.24 701.56C560.464 704.932 555.606 708.929 552.737 712.944L552.259 712.833C506.956 754.5 489.314 806.939 481.528 866.403C478.727 887.799 475.925 908.519 474.947 930.216C474.88 931.778 474.832 933.34 474.803 934.903C481.433 946.153 491.109 958.652 501.048 967.117C501.257 963.984 503.027 961.386 505.669 959.881C510.039 960.272 513.728 962.608 513.053 967.392L509.029 969.009L508.316 970.967L509.538 973.446C516.053 975.483 518.477 969.335 519.36 964.057L519.535 962.972C521.866 963.459 520.813 963.618 522.82 962.737L523.611 959.129C518.569 931.636 519.224 903.4 525.535 876.17L603.554 876.146C609.036 917.45 612.614 937.114 599.727 977.095C601.43 976.841 601.603 976.681 603.239 976.099C605.014 971.053 607.594 965.551 613.58 967.531C616.71 970.53 616.827 971.133 617.825 975.388C631.257 965.042 640.387 954.44 650.423 940.899C654.618 942.093 653.277 941.041 655.426 944.814C646.722 957.907 606.926 1000.96 591.052 996.071C588.452 993.945 588.553 993.539 587.719 990.087C589.408 981.936 594.967 970.416 597.655 961.333C604.417 938.483 602.333 906.093 597.635 882.958C575.289 883.154 552.941 883.158 530.595 882.969C526.279 919.235 523.03 941.723 536.024 977.157C540.556 977.325 539.081 976.726 542.4 978.887C543.699 982.75 543.397 983.511 541.011 987.129C541.436 990.812 540.922 992.612 538.646 995.445C523.108 1002.34 470.828 951.589 469.263 934.892C467.607 917.234 472.085 887.148 474.563 869.053C475.389 864.225 476.073 859.374 476.617 854.506Z"/><path fill="#B83414" d="M501.048 967.117C501.257 963.984 503.027 961.386 505.669 959.881C510.039 960.272 513.728 962.608 513.053 967.392L509.029 969.009L508.316 970.967L509.538 973.446C516.053 975.483 518.477 969.335 519.36 964.057L519.535 962.972C521.866 963.459 520.813 963.618 522.82 962.737L523.611 959.129C527.098 971.504 529.508 979.666 535.307 991.286C522.245 984.424 511.898 977.278 501.048 967.117Z"/><path fill="#B83414" d="M599.727 977.095C601.43 976.841 601.603 976.681 603.239 976.099C605.014 971.053 607.594 965.551 613.58 967.531C616.71 970.53 616.827 971.133 617.825 975.388C610.206 981.484 602.036 986.858 593.421 991.44L599.727 977.095Z"/><path fill="#100A0F" d="M536.024 977.157C540.556 977.325 539.081 976.726 542.4 978.887C543.699 982.75 543.397 983.511 541.011 987.129C539.111 984.243 537.496 980.351 536.024 977.157Z"/><path fill="#FDFBFD" d="M617.639 752.918C648.791 800.171 657.748 879.939 660.542 936.161L655.426 944.814C653.277 941.041 654.618 942.093 650.423 940.899C650.964 940.063 653.093 936.631 653.118 935.992C654.271 906.627 645.481 847.011 638.627 820.837C634.554 804.966 629.064 789.492 622.224 774.603L620.016 770.569C618.728 767.292 615.268 761.361 613.45 758.038C614.322 755.074 615.01 754.899 617.639 752.918Z"/><path fill="#B83414" d="M622.224 774.603C621.964 778.797 622.699 779.264 620.278 781.725L618.045 781.213C615.883 778.792 615.894 778.259 615.566 774.99C616.902 771.432 615.894 772.675 620.016 770.569L622.224 774.603Z"/><path fill="#B83414" d="M552.737 712.944C555.843 713.478 557.843 712.434 560.882 711.406L561.463 712.109C559.775 715.951 558.392 719.316 554.074 720.403L552.1 718.86C552.001 716.648 552.123 715.016 552.259 712.833L552.737 712.944Z"/><path fill="#FBFCFB" d="M532.379 839.343C533.45 834.013 534.694 828.719 536.109 823.47C539.563 811 554.149 771.24 564.195 765.529C566.62 766.447 567.568 768.567 569.369 770.952L573.727 777.969C585.665 799.311 591.598 815.45 596.06 839.327C573.681 840.129 554.669 839.98 532.379 839.343Z"/><path d="M564.085 775.548C574.186 785.457 584.851 819.443 588.441 833.062C581.847 833.481 573.83 833.335 567.121 833.388C558.146 833.477 549.17 833.373 540.2 833.074C545.889 810.147 552.048 795.593 564.085 775.548Z"/><path fill="#B83414" d="M569.369 770.952C570.572 766.04 570.089 764.686 568.737 759.861L569.851 759.718C573.948 763.958 576.761 772.774 573.727 777.969L569.369 770.952Z"/><path fill="#B9331A" d="M564.338 713.172L565.28 712.531C568.698 712.637 569.88 715.061 570.617 717.775C567.614 717.903 566.023 717.464 563.917 715.398L564.338 713.172Z"/><path fill="#FBFCFB" d="M1200 895.274C1200.13 864.101 1200.04 832.928 1199.74 801.757C1199.74 750.428 1227.22 710.339 1279.3 696.89C1282.66 696.021 1286.23 702.97 1285.8 703.765C1280.27 713.969 1267.98 722.828 1264.15 733.98C1255.74 758.453 1260.2 785.426 1257.78 811.077C1283.51 798.898 1311.33 774.697 1312.26 744.131C1312.58 733.713 1297.85 712.093 1307.13 707.085C1317.72 707.665 1369.06 730.284 1377.38 737.588C1381.03 744.066 1372.32 756.04 1368.62 761.531C1352.89 785.215 1331.49 804.59 1306.36 817.894C1338.29 827.46 1375.2 843.129 1384.19 878.319C1384.25 885.6 1385.49 890.458 1385.25 898.602C1381.05 935.523 1346.01 978.157 1317.78 1000.75C1313.4 1004.26 1309.2 1007.36 1303.48 1007.69C1295.85 1004.62 1298.15 998.614 1301.95 993.227C1323.22 963.08 1351.53 896.212 1308.2 872.393C1292.57 863.716 1275.6 860.315 1257.94 858.655C1258.14 881.186 1256.38 953.318 1264.96 969.868C1268.21 976.132 1285.18 996.126 1285.72 999.177C1285.79 999.589 1284.57 1002.05 1284.34 1002.61C1273.18 1013.36 1234.29 984.047 1225.99 975.123C1208.22 956.004 1203.02 935.82 1199.54 910.865C1198.57 907.515 1199.73 906.735 1197.62 902.162L1198.4 896.762L1200 895.274Z"/><path fill="#51504C" d="M1200 895.274C1199.92 899.189 1199.98 907.281 1199.54 910.865C1198.57 907.515 1199.73 906.735 1197.62 902.162L1198.4 896.762L1200 895.274Z"/><path fill="#B9331A" d="M1247.05 718.614C1259.61 710.572 1267.87 707.876 1280.76 701.656C1271.08 711.285 1266.12 717.127 1259.07 728.835C1250.06 754.473 1251.46 791.457 1251.98 819.408C1266.81 814.891 1272.89 811.57 1285.62 801.833L1287.9 799.743C1302.26 786.777 1308.97 778.432 1316.31 760.615C1317.74 756.344 1318.19 750.415 1318.71 745.815C1317.05 728.251 1316.82 729.031 1308.68 712.58C1317.29 716.22 1367.53 736.435 1371.57 741.58L1370.97 744.203C1368.6 748.466 1366.51 752.178 1363.87 756.269C1355.1 772.034 1326.26 802.404 1309.88 807.91C1305.69 811.841 1294.06 817.134 1288.25 819.935C1342.11 833.2 1402.75 858.87 1369.8 926.143L1368.9 927.795C1363.57 940.323 1348.26 962.686 1338.4 972.084C1330.12 982.368 1315.27 995.406 1303.78 1001.9C1315.51 986.723 1322.22 973.039 1329.29 955.183C1344.62 903.264 1342.06 872.332 1284.25 856.06C1273.4 853.882 1262.13 852.579 1251.13 851.17C1253.28 879.442 1250.93 909.102 1252.24 937.548C1253.31 960.994 1256.87 973.592 1271.67 991.86C1269.22 994.652 1270.49 993.827 1266.7 994.824C1240.43 982.449 1215.73 962.732 1210.3 932.454C1208.82 928.233 1208.14 923.597 1207.33 919.179C1205.39 903.869 1206.12 886.503 1206.88 870.959C1209.74 812.148 1191.36 758.274 1247.05 718.614Z"/><path fill="#BD301A" d="M1318.71 745.815C1318.65 750.111 1317.86 750.521 1320.17 753.087L1322.97 753.852C1326.16 759.615 1322.44 761.378 1321.95 767.506L1320.85 768.792C1317.44 766.335 1320.04 763.861 1316.31 760.615C1317.74 756.344 1318.19 750.415 1318.71 745.815Z"/><path fill="#B83414" d="M1363.87 756.269L1361.13 755.522L1360.49 753.925C1361.7 748.931 1362.33 744.875 1366 741.128C1369.27 741.805 1368.21 741.53 1370.97 744.203C1368.6 748.466 1366.51 752.178 1363.87 756.269Z"/><path fill="#B83414" d="M1368.9 927.795C1365.67 925.283 1362.21 918.203 1363.11 913.966L1364.73 913.092C1369.45 916.248 1369.81 920.987 1369.8 926.143L1368.9 927.795Z"/><path fill="#B83414" d="M1297.48 808.109C1300.76 805.826 1308.11 801.671 1312.02 802.549L1311.84 802.37C1311.23 804.409 1310.09 806.021 1309.88 807.91C1302.29 805.757 1301.17 814.37 1295.08 808.787L1295.75 807.71L1297.48 808.109Z"/><path fill="#B83414" d="M1207.33 919.179C1208.5 916.492 1208.83 914.907 1211.09 913.239C1212.68 915.584 1211.36 929.61 1210.3 932.454C1208.82 928.233 1208.14 923.597 1207.33 919.179Z"/><path fill="#B83414" d="M1287.9 799.743C1289.57 801.456 1290.41 802.254 1292.28 803.747L1292.81 806.057C1289.86 806.863 1287.37 803.915 1285.62 801.833L1287.9 799.743Z"/><path fill="#B83414" d="M1252.22 821.213C1255.37 821.015 1257.28 820.497 1259.83 822.197L1259.99 823.734C1256.09 824.049 1255.04 824.777 1251.9 823.197L1252.22 821.213Z"/><path fill="#BD301A" d="M1271.67 991.86C1274.51 994.717 1277.7 998.078 1280.63 1000.77L1266.7 994.824C1270.49 993.827 1269.22 994.652 1271.67 991.86Z"/><path fill="#FBFCFB" d="M1044.42 575.375C1063.34 543.544 1071.73 512.715 1076.71 476.062C1080.14 450.834 1084.43 426.25 1080.36 400.734C1078.07 386.336 1072.06 374.712 1067.7 361.126C1068.02 358.017 1068.1 357.648 1069.97 355.15C1074.98 352.632 1078.14 353.758 1082.9 356.612C1105.85 370.358 1127.65 391.239 1140.68 414.473C1139.73 428.073 1138.7 441.667 1137.6 455.256L1139.57 457.892L1136.73 471.081L1136.02 471.406C1134.46 474.33 1130.64 506.125 1129.4 512.508C1123.65 542.04 1112.75 573.405 1097.19 599.129C1089.76 611.408 1057.64 651.214 1044.68 654.44C1035.09 653.704 1013.18 627.446 1006.39 619.364C956.669 560.178 956.398 487.371 947.818 415.237C957.427 395.266 976.844 376.616 994.709 363.933C1001.48 359.129 1013.82 348.312 1020.78 358.027C1019.2 369.429 1012.22 381.626 1010.26 392.893C1000.54 448.586 1015.6 527.983 1044.42 575.375Z"/><path fill="#100A0F" d="M1136.02 471.406C1135.95 467.197 1136.62 459.359 1137.6 455.256L1139.57 457.892L1136.73 471.081L1136.02 471.406Z"/><path fill="#BD301A" d="M1073.12 358.795C1079.2 362.325 1085.72 365.828 1091.16 370.231C1095.15 372.815 1096.76 373.808 1100.25 377.094C1114.39 388.647 1124.94 400.416 1134.3 416.154C1133.13 429.263 1132.22 444.696 1130.56 457.558C1130.27 460.07 1129.13 468.714 1129.25 470.723C1126.2 491.692 1123.07 513.354 1117.67 533.802C1116 539.533 1114.27 545.249 1112.5 550.948C1095.3 595.814 1080.1 616.513 1044.33 649.134C990.858 599.377 973.377 562.417 962.348 489.511C958.518 465.02 956.004 440.34 954.818 415.579C963.696 400.626 975.244 387.43 988.889 376.647C997.997 369.075 1005.76 364.423 1015.9 358.528C1011.65 366.622 1008.76 373.451 1006.24 382.305C1004.42 388.173 1003.04 394.164 1002.09 400.233C999.768 415.075 999.814 427.272 1001.19 442.166C1005.85 492.839 1014.01 544.562 1044.53 586.617C1069.13 553.201 1077.07 515.734 1083.32 475.634C1089.99 432.859 1093.09 398.609 1073.12 358.795Z"/><path fill="#B9331A" d="M988.889 376.647C997.997 369.075 1005.76 364.423 1015.9 358.528C1011.65 366.622 1008.76 373.451 1006.24 382.305C1005 380.711 1004.44 379.099 1003.85 377.183L1002.11 376.942C999.266 378.099 998.838 378.091 996.982 380.388C999.399 381.763 999.928 381.85 1001.34 384.12L999.954 386.107L998.415 386.02C992.976 381.254 996.056 380.697 988.889 376.647Z"/><path fill="#B83414" d="M1129.25 470.723C1126.46 472.263 1125.78 474.387 1123.66 477.222L1122.98 476.65C1120.8 470.59 1125.26 455.625 1127.25 449.557C1128.54 450.952 1129.98 455.602 1130.56 457.558C1130.27 460.07 1129.13 468.714 1129.25 470.723Z"/><path fill="#B83414" d="M1112.5 550.948C1112.09 550.509 1111.69 550.064 1111.3 549.614C1106.2 543.77 1111.05 544.27 1111.59 535.382C1109.46 530.671 1108.49 530.485 1111.5 526.687C1113.7 527.481 1114.86 530.559 1117.22 533.294L1117.67 533.802C1116 539.533 1114.27 545.249 1112.5 550.948Z"/><path fill="#B9331A" d="M1091.16 370.231C1095.15 372.815 1096.76 373.808 1100.25 377.094C1097.73 379.672 1096.73 381.311 1093.04 380.622C1090.93 374.868 1094.4 376.949 1091.16 370.231Z"/><path fill="#FBFCFB" d="M841.723 757.173C849.051 741.144 894.038 690.341 911.538 696.648C913.86 698.556 914.041 698.6 914.797 701.385C912.161 713.087 903.688 730.13 902.314 741.597C896.918 786.618 907.305 842.243 921.668 884.737C924.926 894.375 934.794 909.742 936.645 915.687L940.347 915.836C941.866 907.999 952.093 892.47 955.431 882.544C967.815 845.729 973.319 807.018 975.894 768.371C977.217 747.141 970.493 722.575 961.287 703.807C959.334 699.826 966.408 694.09 971.319 696.283C994.589 706.674 1021.15 732.563 1033.4 754.501C1033.69 755.03 1033.98 755.564 1034.26 756.102C1033.41 781.995 1030.46 804.205 1027.14 829.226C1018.43 894.718 998.356 945.436 948.898 990.287C946.6 992.372 940.608 997.305 937.837 996.61C926.93 993.877 902.384 964.216 896.028 956.03C853.316 901.015 846.927 824.649 841.723 757.173Z"/><path fill="#B9331A" d="M848.198 758.133C864.185 732.175 882.778 715.551 909.388 700.792C891.26 736.946 892.399 765.843 897.155 804.667C900.589 832.694 903.912 851.903 913.049 879.406C918.178 895.252 925.565 910.277 934.982 924.016L937.334 927.057L939.034 927.061L941.911 923.202C949.844 912.697 960.252 891.263 963.559 878.693C978.542 821.728 994.615 755.551 966.938 700.838L977.484 706.924L985.077 711.895L987.971 714.344C991.868 717.165 995.025 719.301 998.433 722.723C1011.56 734.449 1019.38 743.46 1028.24 758.525C1025.41 779.833 1024.74 813.651 1019.47 833.811C1019 838.318 1018.68 843.373 1017.39 847.65C1010.34 898.408 986.086 948.151 947.329 982.231C943.994 985.724 941.657 987.879 937.989 991.031L930.78 984.379C909.944 964.194 896.077 948.234 882.627 922.365L879.569 916.089C855.511 862.668 853.986 814.573 848.198 758.133Z"/><path fill="#B83414" d="M1017.39 847.65C1015.68 848.545 1014.81 849.397 1013.31 850.595C1011.61 847.774 1013.14 834.742 1016.53 832.347L1019.47 833.811C1019 838.318 1018.68 843.373 1017.39 847.65Z"/><path fill="#B83414" d="M977.484 706.924L985.077 711.895C984.927 715.421 985.446 714.381 983.645 716.997C978.247 717.166 973.466 712.243 977.484 706.924Z"/><path fill="#B83414" d="M950.025 917.123C953.176 916.277 951.821 916.144 954.948 917.801C956.744 920.43 956.877 920.774 956.704 923.947L955.411 924.816C953.809 923.219 954.261 924.136 953.822 922.08L950.025 917.123Z"/><path fill="#BD301A" d="M868.317 867.475L870.156 868.233C871.318 871.528 870.197 875.47 869.603 879.106C866.758 873.628 866.043 873.209 868.317 867.475Z"/><path fill="#BD301A" d="M953.822 922.08C953.095 923.695 953.129 923.36 951.846 924.72L950.265 923.923C949.057 920.747 949.01 920.359 950.025 917.123L953.822 922.08Z"/><path fill="#BD301A" d="M908.077 872.601C910.448 875.571 910.141 878.317 908.557 881.596L907.023 880.168C906.147 876.658 906.89 876.402 908.077 872.601Z"/><path fill="#BD301A" d="M852.382 756.551L853.563 757.155C855.038 759.922 854.167 760.722 853.43 764.43C850.02 760.727 850.186 760.591 852.382 756.551Z"/><path fill="#BD301A" d="M856.397 782.814C858.836 785.797 858.105 789.357 857.978 793.369L856.799 792.372C855.436 789.113 856.068 786.407 856.397 782.814Z"/><path fill="#FDFBFD" d="M940.347 915.836C942.343 917.721 941.733 919.71 941.911 923.202L939.034 927.061L937.334 927.057L934.982 924.016C935.208 920.33 935.148 919.14 936.645 915.687L940.347 915.836Z"/><path fill="#FBFCFB" d="M1197.62 902.162C1162.73 966.687 1096.51 998.41 1024.41 999.164C1020.14 999.208 1015.29 998.564 1012.02 995.676C1011.48 994.018 1010.86 990.152 1012.07 988.858C1023.6 976.512 1033.96 967.746 1041.14 951.684C1044.23 944.881 1046.15 937.603 1046.81 930.16C1047.79 919.172 1047.14 902.457 1047.25 891.02L1047.31 807.153C1047.24 793.025 1047.42 779.257 1046.74 764.945C1045.74 744.221 1033.03 727.082 1019 712.71C1015.83 709.462 1012.47 705.499 1010.82 701.22L1011.75 699.349C1018.65 693.637 1030.03 695.477 1038.44 696.078C1069.08 698.266 1099.58 706.095 1126.6 720.917C1150.92 734.255 1171.85 752.997 1187.79 775.699C1192.53 782.449 1200.53 792.34 1195.63 800.388C1194.02 801.22 1191.76 802.703 1189.94 801.486C1163 783.455 1137.95 774.306 1106.07 767.538C1107.27 780.174 1106.28 806.234 1106.11 819.88C1114.97 820.173 1176.01 826.61 1161.62 847.396C1153.87 858.579 1120.86 863.23 1105.97 864.108C1105.82 883.639 1107.42 907.754 1106.15 926.746C1126.25 924.333 1154.25 913.582 1172.12 904.248C1178.23 901.056 1184.68 894.507 1191.55 892.819C1195.1 893.215 1195.7 894.247 1198.4 896.762L1197.62 902.162Z"/><path fill="#B9331A" d="M1016.27 702.019C1020.81 701.957 1025.36 701.99 1029.9 702.118C1075.38 703.809 1129.46 720.538 1161.04 754.752C1171.58 762.323 1185.66 784.251 1192.41 795.525C1181.88 788.98 1171.24 782.292 1159.82 777.358C1156.8 776.119 1154.98 775.228 1152.11 773.665L1120.74 763.962C1113.83 762.601 1106.91 761.3 1099.97 760.061C1100.13 782.135 1100.11 804.209 1099.92 826.283C1124.27 826.351 1138.55 829.265 1159.78 841.982C1143.27 851.443 1133.35 855.288 1113.67 856.921C1110.4 857.192 1101.5 857.415 1099.19 857.754C1099.19 860.757 1099.29 864.411 1099.11 867.353C1099.71 890.595 1100.18 911.249 1100.01 934.624C1121.87 930.58 1128.48 927.947 1148.89 921.936C1167.51 914.094 1174.57 910.098 1191.51 899.689C1186.83 908.358 1174.49 928.374 1166.87 934.211C1143.18 961.273 1107.7 978.651 1073.17 986.984C1071.48 987.256 1067.74 987.973 1066.21 988.063C1051.19 992.036 1031.33 992.375 1015.55 993.145C1055.27 962.266 1053.71 936.907 1054.02 892.063C1054.22 868.898 1054.24 845.733 1054.1 822.568C1053.87 771.678 1061.33 738.106 1016.27 702.019Z"/><path fill="#B83414" d="M1152.11 773.665C1150.56 770.572 1151.36 771.64 1148.32 769.644L1148.55 768.018C1152.07 765.146 1153.27 764.828 1157.37 763.282C1155.04 765.762 1154.78 765.893 1153.59 768.995L1155 770.026L1158.1 769.363C1161.54 769.629 1161.96 769.992 1164.82 771.989C1163.6 773.585 1162.7 774.146 1162.56 775.809L1159.82 777.358C1156.8 776.119 1154.98 775.228 1152.11 773.665Z"/><path fill="#B83414" d="M1099.97 760.061C1105.11 754.812 1121.74 757.926 1126.87 761.279L1126.41 762.196L1125.57 762.292C1123.35 762.566 1122.31 762.431 1120.74 763.962C1113.83 762.601 1106.91 761.3 1099.97 760.061Z"/><path fill="#B83414" d="M1066.21 988.063C1063.77 985.146 1061.1 985.63 1056.53 982.746C1058.63 981.37 1059.99 981.965 1062.93 982.092C1066.49 983.3 1067.34 983.87 1071 983.237L1073.17 986.984C1071.48 987.256 1067.74 987.973 1066.21 988.063Z"/><path fill="#B83414" d="M1164.82 771.989C1169.29 772.795 1168.38 771.911 1170.5 774.694C1169.03 776.9 1169.81 776.2 1166.57 776.965L1162.56 775.809C1162.7 774.146 1163.6 773.585 1164.82 771.989Z"/><path fill="#BD301A" d="M1055.75 711.326C1061.8 711.279 1064.41 711.052 1069.82 713.68C1065.61 714.112 1060.13 714.968 1056.3 713.519L1055.75 711.326Z"/><path fill="#B83414" d="M1155.3 923.308C1158.27 925.5 1159.37 925.804 1162.99 926.543L1163.97 927.899C1163.3 929.567 1163.08 930.302 1162.11 931.829C1158.09 929.876 1157.54 927.173 1155.3 923.308Z"/><path fill="#FBFCFB" d="M1332.3 351.208C1343.64 351.981 1353.81 351.967 1365.28 353.416C1405.83 358.538 1444.64 374.424 1474.84 402.341C1485.33 412.044 1509.94 439.008 1510.49 453.155C1505.67 464.896 1489.25 448.352 1482.13 444.784C1461.73 434.564 1441.09 428.213 1418.87 423.43C1419.72 438.765 1418.97 460.124 1418.85 475.912C1428 476.09 1488.55 482.232 1473.86 503.605C1466.41 514.455 1432.91 519.304 1418.4 520.054C1418.12 540.936 1419.63 561.541 1418.9 582.737C1431.75 580.835 1450.14 575.105 1462.25 570.502C1476.79 564.765 1487.17 557.78 1500.72 550.386C1503.87 548.67 1505.38 549.127 1508.68 550.301C1512.74 555.464 1509.57 559.613 1506.67 564.658C1472.42 624.146 1405.31 654.251 1338.42 655.118C1331.87 655.203 1328.83 655.882 1324.52 650.432C1324.37 649.357 1324.19 648.088 1323.97 646.624C1334.47 634.364 1351.81 617.362 1356.5 601.147C1361.29 584.603 1360.04 559.126 1360.14 540.989C1360.48 518.527 1360.48 496.061 1360.15 473.599C1359.84 432.778 1365.84 399.091 1332.44 369.821C1327.95 365.888 1323.16 360.841 1325.03 354.708C1327.44 351.91 1328.67 352.004 1332.3 351.208Z"/><path fill="#B9331A" d="M1328.79 357.977C1383.69 357.884 1435.31 371.962 1475.17 411.623C1486.83 423.359 1496.76 436.69 1504.67 451.216C1482.13 436.944 1474.82 433.955 1450.51 424.9L1441.86 422.624C1430.95 419.03 1424 417.623 1412.48 416.63C1412.98 438.678 1411.99 460.419 1412.35 482.131C1434.96 482.267 1452.5 484.963 1472.05 497.846C1450.61 511.006 1436.77 513.113 1412.09 513.309C1411.99 537 1411.85 567.118 1412.55 590.708C1429.11 587.209 1439.93 584.585 1456.29 579.712C1458.41 578.813 1461.4 577.967 1463.65 577.253C1479.31 569.959 1489.57 564.914 1504.08 555.774C1495.4 571.823 1476.81 597.494 1461.1 606.783C1459.89 608.048 1459.08 609.02 1457.6 609.987C1454.91 611.848 1451.86 614.087 1449.13 615.775C1447.56 616.819 1445.43 618.345 1443.84 619.193C1413.91 641.705 1364.61 647.259 1328.63 649.096C1332.63 645.17 1337.07 641.438 1341.19 637.445C1371.44 608.142 1366.62 571.777 1366.61 533.182C1366.6 495.744 1367.61 455.846 1366.12 418.084L1364.84 412.101C1363.32 404.86 1360.86 398.942 1357.88 392.275L1353.85 385.094C1346 373.917 1340.3 366.113 1328.79 357.977Z"/><path fill="#BD301A" d="M1463.65 577.253C1467.53 577.406 1468.91 577.607 1472.76 576.48L1474.58 577.168C1473.42 582.256 1464.5 584.627 1459.87 585.168C1456.43 583.86 1456.39 583.83 1456.29 579.712C1458.41 578.813 1461.4 577.967 1463.65 577.253Z"/><path fill="#BD301A" d="M1364.84 412.101C1365.14 407.627 1365.1 406.806 1367.96 403.175C1372.85 402.025 1374.66 406.652 1374.47 410.818L1372.79 412.615L1370.18 412.174C1369.37 414.161 1369.14 414.293 1369.37 416.469L1366.12 418.084L1364.84 412.101Z"/><path fill="#B83414" d="M1457.6 609.987C1456.56 603.549 1463.36 595.684 1468.28 592.16L1469.8 592.421C1468.74 600.383 1463.02 598.662 1461.1 606.783C1459.89 608.048 1459.08 609.02 1457.6 609.987Z"/><path fill="#B83414" d="M1443.84 619.193C1441.64 619.123 1441.74 619.046 1439.71 618.135L1439.19 616.656C1441.43 613.474 1446.43 608.587 1450.41 611.405L1449.13 615.775C1447.56 616.819 1445.43 618.345 1443.84 619.193Z"/><path fill="#BD301A" d="M1441.86 422.624C1445.46 420.034 1450.54 418.903 1454.88 417.675L1456.61 418.115C1455.52 421.793 1453.09 420.686 1450.51 424.9L1441.86 422.624Z"/><path fill="#BD301A" d="M1353.85 385.094C1355.58 383.731 1356.53 383.07 1358 381.367L1360.1 380.986C1358.98 385.769 1357.15 387.239 1357.88 392.275L1353.85 385.094Z"/><path fill="#B83414" d="M1477.79 420.914L1480.91 421.428C1483.08 424.191 1483.42 427.981 1483.36 431.459C1480.08 428.168 1476.85 428.134 1475.56 424.817L1477.79 420.914Z"/><path fill="#B83414" d="M1397.32 369.239C1399.91 371.438 1401.25 371.834 1402.2 374.711L1399.38 377.019C1396.56 375.618 1395.64 375.333 1393.38 373.225C1393.99 370.58 1394.14 371.272 1397.32 369.239Z"/><path fill="#FBFCFB" d="M1863.57 924.105C1826.42 970.79 1777.61 994.244 1718.23 998.606C1709.54 999.244 1694.76 1001.57 1690.36 992.287C1694.33 985.628 1700.51 980.175 1705.47 974.196C1717.14 960.14 1726.26 945.165 1726.57 926.442C1727.46 872.77 1727.33 819.106 1726.66 765.446C1726.55 756.804 1720.34 742.691 1716.77 734.813C1712.49 725.473 1693.24 710.397 1690.55 702.716C1692.52 694.627 1697.29 695.64 1704.41 695.653C1770.64 695.781 1836.63 725.343 1872.02 782.985C1874.85 787.589 1877.38 791.465 1877.24 797.127C1872.78 806.262 1866.16 799.832 1860.31 795.959C1837.73 780.989 1812.06 773.551 1785.91 767.515C1786.06 784.971 1785.99 802.428 1785.7 819.882C1796.12 820.223 1843.61 826.171 1843.22 840.98C1842.77 858.145 1799.87 863.197 1785.13 864.155C1784.81 884.468 1786.16 905.696 1785.9 926.816C1800.17 924.763 1818.67 918.599 1832.88 913.225C1844.67 908.765 1859 897.959 1870.87 893.277C1872.31 893.504 1873.51 893.694 1874.48 893.847C1882.4 900.398 1869.14 915.686 1864.67 922.181L1863.57 924.105Z"/><path fill="#B9331A" d="M1695.55 701.99L1699.65 702.012C1742.45 702.327 1801.4 715.776 1832.24 747.054C1837.07 751.102 1840.52 754.036 1844.96 758.621L1850.4 764.752C1859.62 775.707 1864.6 783.636 1872.13 795.905C1861.29 788.761 1853.21 784.896 1842.64 778.575C1822.61 770.48 1800.9 762.542 1779.25 760.61C1779.96 781.831 1779.36 804.856 1779.2 826.219C1802.16 826.508 1818.91 828.997 1838.73 841.951C1817.79 855.062 1802.99 857.279 1779.02 857.409L1779.32 934.58C1795.45 931.734 1806.14 929.09 1821.77 924.147C1841.76 917.229 1853.68 910.59 1871.38 899.373C1866.3 908.09 1862.42 914.235 1856.6 922.465C1826.31 958.732 1781.65 986.575 1733.63 990.047L1733.17 990.09C1726.75 992.221 1703.32 992.705 1695.4 992.991C1701.81 987.676 1705.19 984.868 1710.84 978.616L1717.22 970.44C1722.96 962.915 1731.99 944.001 1732.31 934.943C1734.22 876.975 1734.1 818.427 1732.55 760.416C1732.01 740.392 1710.62 713.85 1695.55 701.99Z"/><path fill="#B83414" d="M1821.77 924.147C1841.76 917.229 1853.68 910.59 1871.38 899.373C1866.3 908.09 1862.42 914.235 1856.6 922.465C1848.55 922.638 1840.73 927.282 1832.67 926.938C1831.56 926.891 1823.86 924.607 1821.77 924.147Z"/><path fill="#B83414" d="M1717.22 970.44C1719.81 973.529 1719.42 972.202 1719.75 975.782C1717.06 979.525 1715.21 979.317 1710.84 978.616L1717.22 970.44Z"/><path fill="#B83414" d="M1733.17 990.09L1728.94 987.937L1728.85 986.1C1731.53 984.507 1730.39 984.907 1733.87 985.163L1735.84 986.828C1735.12 987.883 1734.38 989.028 1733.63 990.047L1733.17 990.09Z"/><path fill="#BD301A" d="M1814.37 739.954C1820.68 740.321 1820.62 740.08 1824.19 744.969C1819.08 745.692 1817.52 743.71 1814.37 739.954Z"/><path fill="#100A0F" d="M1864.67 922.181C1868.86 923.561 1867.7 922.548 1869.68 925.671L1869.09 927.11L1866.67 927.175C1865.73 926.162 1864.67 924.847 1863.57 924.105L1864.67 922.181Z"/><path fill="#100A0F" d="M1225.71 429.888C1226.99 429.164 1228.62 429.622 1229.33 430.907C1230.05 432.193 1229.58 433.817 1228.3 434.527C1227.01 435.232 1225.41 434.77 1224.69 433.494C1223.98 432.217 1224.44 430.606 1225.71 429.888Z"/></svg>